<?xml version="1.0" encoding="utf-8"?>
<!-- Generator: Adobe Illustrator 24.2.1, SVG Export Plug-In . SVG Version: 6.00 Build 0)  -->
<svg version="1.1" id="Calque_1" xmlns="http://www.w3.org/2000/svg" xmlns:xlink="http://www.w3.org/1999/xlink" x="0px" y="0px"
	 viewBox="0 0 1949 600" style="enable-background:new 0 0 1949 600;" xml:space="preserve">
<style type="text/css">
	.st0{fill:#FFFFFF;}
	.st1{filter:url(#Adobe_OpacityMaskFilter);}
	.st2{mask:url(#SVGID_1_);}
	.st3{fill:#FFD000;}
</style>
<g>
	<g>
		<g>
			<path class="st0" d="M683.4,128.6v342.8H649V128.6H683.4z"/>
			<path class="st0" d="M944.2,471.4L795.6,313v158.4h-34.3V128.6h34.3V289l148.6-160.3h43.6L827.5,299.8l161.8,171.6H944.2z"/>
			<path class="st0" d="M1238.4,390h-155.9l-29.9,81.4h-36.3l125-338.3h38.7l124.6,338.3h-36.3L1238.4,390z M1228.1,361.5
				l-67.7-185.4l-67.7,185.4H1228.1z"/>
		</g>
		<g>
			<path class="st0" d="M1551.6,150.2c27.3,14.1,48.4,34.1,63.3,60.1c14.9,26,22.3,56.1,22.3,90.5s-7.4,64.3-22.3,90
				c-14.9,25.7-36,45.5-63.3,59.6c-27.3,14.1-58.9,21.1-94.9,21.1H1337V129.1h119.6C1492.6,129.1,1524.3,136.1,1551.6,150.2z
				 M1537.6,383.6c19.6-19.6,29.4-47.2,29.4-82.9c0-35.6-9.8-63.5-29.4-83.6s-47.4-30.2-83.4-30.2h-48.5V413h48.5
				C1490.2,413,1518,403.2,1537.6,383.6z"/>
			<path class="st0" d="M1930.4,324.8c12.4,15.7,18.6,33.7,18.6,53.9c0,18.3-4.5,34.4-13.5,48.3c-9,13.9-22,24.8-39,32.6
				c-17,7.8-37.1,11.8-60.3,11.8h-147.6V129.1h141.2c23.2,0,43.2,3.8,60.1,11.3c16.8,7.5,29.6,18,38.2,31.4
				c8.7,13.4,13,28.6,13,45.6c0,19.9-5.3,36.6-15.9,50c-10.6,13.4-24.8,22.9-42.4,28.4C1902.1,299.4,1917.9,309.1,1930.4,324.8z
				 M1757.3,270.3h62.8c16.3,0,28.9-3.7,37.8-11c8.8-7.4,13.2-17.9,13.2-31.6c0-13.7-4.4-24.3-13.2-31.9
				c-8.8-7.5-21.4-11.3-37.8-11.3h-62.8V270.3z M1865.4,403.7c9.3-7.8,14-19,14-33.3c0-14.7-4.9-26.2-14.7-34.6
				c-9.8-8.3-23-12.5-39.7-12.5h-67.7v92.2h69.1C1843.1,415.5,1856.1,411.6,1865.4,403.7z"/>
		</g>
	</g>
	<defs>
		<filter id="Adobe_OpacityMaskFilter" filterUnits="userSpaceOnUse" x="0" y="0" width="600" height="600">
			<feColorMatrix  type="matrix" values="1 0 0 0 0  0 1 0 0 0  0 0 1 0 0  0 0 0 1 0"/>
		</filter>
	</defs>
	<mask maskUnits="userSpaceOnUse" x="0" y="0" width="600" height="600" id="SVGID_1_">
		<g class="st1">
			<g>
				<circle class="st0" cx="300" cy="300" r="300"/>
			</g>
		</g>
	</mask>
	<g class="st2">
		<g>
			<path class="st3" d="M527,62.7v458h-46.5V155L317.3,520.7h-33.8L120.1,156.3v364.4H73.7v-458h49.1L300,459.6L477.2,62.7H527z"/>
		</g>
		<path class="st3" d="M300,25c37.1,0,73.1,7.3,107,21.6c32.7,13.8,62.2,33.7,87.4,58.9c25.3,25.3,45.1,54.7,58.9,87.4
			c14.3,33.9,21.6,69.9,21.6,107s-7.3,73.1-21.6,107c-13.8,32.7-33.7,62.2-58.9,87.4c-25.3,25.3-54.7,45.1-87.4,58.9
			c-33.9,14.3-69.9,21.6-107,21.6s-73.1-7.3-107-21.6c-32.7-13.8-62.2-33.7-87.4-58.9c-25.3-25.3-45.1-54.7-58.9-87.4
			C32.3,373.1,25,337.1,25,300s7.3-73.1,21.6-107c13.8-32.7,33.7-62.2,58.9-87.4c25.3-25.3,54.7-45.1,87.4-58.9
			C226.9,32.3,262.9,25,300,25 M300,0C134.3,0,0,134.3,0,300s134.3,300,300,300s300-134.3,300-300S465.7,0,300,0L300,0z"/>
	</g>
</g>
</svg>
